[Header]
FileType HTR
DataType HTRS
FileVersion 1
NumSegments 22
NumFrames 4
DataFrameRate 24
EulerRotationOrder ZYX
CalibrationUnits mm
RotationUnits Degrees
GlobalAxisofGravity Y
BoneLengthAxis Y
ScaleFactor 1.0
[SegmentNames&Hierarchy]
reference	GLOBAL
Hips	reference
Spine	Hips
Spine1	Spine
Neck	Spine1
Head	Neck
LeftShoulder	Spine1
LeftArm	LeftShoulder
LeftForeArm	LeftArm
LeftHand	LeftForeArm
RightShoulder	Spine1
RightArm	RightShoulder
RightForeArm	RightArm
RightHand	RightForeArm
LeftUpLeg	Hips
LeftLeg	LeftUpLeg
LeftFoot	LeftLeg
LeftToeBase	LeftFoot
RightUpLeg	Hips
RightLeg	RightUpLeg
RightFoot	RightLeg
RightToeBase	RightFoot
[BasePosition]
reference	0	0	0	0	0	0	1
Hips	0	0	0	0	0	0	1
Spine	0	0	0	-0	-90	0	1
Spine1	0	0	0	0	0	0	1
Neck	0	0	0	82.64767223	-82.64767223	-90	1
Head	0	0	0	-0	-90	0	1
LeftShoulder	0	0	0	0	0	0	1
LeftArm	0	0	0	0	0	0	1
LeftForeArm	0	0	0	0	0	0	1
LeftHand	0	0	0	0	0	0	1
RightShoulder	0	0	0	0	-0	180	1
RightArm	0	0	0	0	-0	180	1
RightForeArm	0	0	0	0	-0	180	1
RightHand	0	0	0	0	-0	180	1
LeftUpLeg	0	0	0	-0	90	0	1
LeftLeg	0	0	0	-0	90	0	1
LeftFoot	0	0	0	-23.42853957	23.42853957	-90	1
LeftToeBase	0	0	0	0	-0	-90	1
RightUpLeg	0	0	0	-0	90	0	1
RightLeg	0	0	0	-0	90	0	1
RightFoot	0	0	0	-23.42853957	23.42853957	-90	1
RightToeBase	0	0	0	0	-0	-90	1
[reference]
20	0	0	0	0	-0	0	1.0
21	0	0	0	0	-0	0	1.0
22	0	0	0	0	-0	0	1.0
23	0	0	0	0	-0	0	1.0
[Hips]
20	5.19536972	-0.1693199873	8.00755024	1.215989232	0.620310545	-137.2499084	1.0
21	5.19536972	-0.1693199873	8.00755024	0.7320510745	0.02280513756	-136.8423309	1.0
22	5.19536972	-0.1693199873	8.00755024	0.8177931309	-0.1898845136	-136.2470703	1.0
23	5.19536972	-0.1693199873	8.00755024	0.6587544084	-0.8207036257	-136.0820618	1.0
[Spine]
20	0	0	0.7457100153	-91.658638	86.04606628	-89.38449097	1.0
21	0	0	0.7457100153	-85.69149017	87.66828918	-82.62713623	1.0
22	0	0	0.7457100153	-75.77449036	88.39015198	-72.27616882	1.0
23	0	0	0.7457100153	-78.33529663	90.27325439	-74.38188171	1.0
[Spine1]
20	0	0	2.140589952	8.660689354	0.8356760144	-1.254617572	1.0
21	0	0	2.140589952	10.15837765	1.547631264	-0.6357635856	1.0
22	0	0	2.140589952	10.61115742	1.762951016	-0.3550777137	1.0
23	0	0	2.140589952	11.419384	1.722049236	0.2757507563	1.0
[Neck]
20	0	0	2.32246995	65.21424866	77.27110291	87.21986389	1.0
21	0	0	2.32246995	68.52406311	78.39444733	89.26071167	1.0
22	0	0	2.32246995	69.66989136	78.87414551	90.13560486	1.0
23	0	0	2.32246995	72.9017334	79.65475464	93.52935028	1.0
[Head]
20	0	-0.1818799973	1.409579992	-72.3433609	96.22660065	-66.65345764	1.0
21	0	-0.1818799973	1.409579992	-74.18095398	94.91944885	-67.49468231	1.0
22	0	-0.1818799973	1.409579992	-73.0723114	94.4280014	-66.35570526	1.0
23	0	-0.1818799973	1.409579992	-76.31270599	93.48684692	-69.77598572	1.0
[LeftShoulder]
20	0.3668199778	0.02662999928	1.946700096	-16.16465759	2.332491875	-15.2363224	1.0
21	0.3668199778	0.02662999928	1.946700096	-16.72482491	2.776955128	-15.34830189	1.0
22	0.3668199778	0.02662999928	1.946700096	-16.61011505	3.04412508	-14.83211708	1.0
23	0.3668199778	0.02662999928	1.946700096	-15.69296551	3.220293283	-13.95930958	1.0
[LeftArm]
20	1.140689969	0	0	55.84937286	69.93369293	5.682264328	1.0
21	1.140689969	0	0	62.66241074	69.80342102	15.61525059	1.0
22	1.140689969	0	0	65.28942108	69.55371094	19.47826195	1.0
23	1.140689969	0	0	68.60153198	69.00286865	24.16242599	1.0
[LeftForeArm]
20	2.749800205	0	0	-13.00732136	-4.553753376	-28.08972549	1.0
21	2.749800205	0	0	-15.04824066	-3.650541067	-22.88075829	1.0
22	2.749800205	0	0	-15.55912971	-2.932910919	-20.84842682	1.0
23	2.749800205	0	0	-16.13961029	-1.917126417	-19.26169205	1.0
[LeftHand]
20	2.295179844	0	0	-14.33393574	2.504491806	-8.507219315	1.0
21	2.295179844	0	0	-15.9923687	3.46959424	-6.766648769	1.0
22	2.295179844	0	0	-16.27988625	3.426268101	-6.040871143	1.0
23	2.295179844	0	0	-16.61952782	2.967315674	-5.886911392	1.0
[RightShoulder]
20	-0.3601199985	0.02662999928	1.946700096	-4.394143105	6.692303658	-176.3582153	1.0
21	-0.3601199985	0.02662999928	1.946700096	-5.16348362	6.754466057	-175.8768158	1.0
22	-0.3601199985	0.02662999928	1.946700096	-5.716412544	6.962474823	-175.6201019	1.0
23	-0.3601199985	0.02662999928	1.946700096	-6.322366714	7.045528412	-175.5315857	1.0
[RightArm]
20	-1.140689969	0	0	48.95900726	-76.43131256	-186.4559174	1.0
21	-1.140689969	0	0	42.71149445	-78.20340729	-176.6745605	1.0
22	-1.140689969	0	0	40.79999924	-79.31694794	-172.4876709	1.0
23	-1.140689969	0	0	36.36923218	-80.41712189	-164.5635681	1.0
[RightForeArm]
20	-2.749800205	0	0	3.300699234	-3.274640083	-169.1994629	1.0
21	-2.749800205	0	0	2.154530048	-2.446033716	-169.9562073	1.0
22	-2.749800205	0	0	1.612223625	-1.801944494	-170.4107819	1.0
23	-2.749800205	0	0	1.693036795	-1.076221228	-170.8054047	1.0
[RightHand]
20	-2.295179844	0	0	3.909560919	5.642297745	-173.9313354	1.0
21	-2.295179844	0	0	2.668821573	6.308170795	-174.5732422	1.0
22	-2.295179844	0	0	2.069479465	6.874680519	-174.9163666	1.0
23	-2.295179844	0	0	2.098335266	7.161014557	-174.9067383	1.0
[LeftUpLeg]
20	0.9094099998	0	0	159.4088135	-94.8053894	-155.7591858	1.0
21	0.9094099998	0	0	150.3569031	-95.75121307	-152.899765	1.0
22	0.9094099998	0	0	156.6289063	-95.36384583	-163.4245911	1.0
23	0.9094099998	0	0	169.8727112	-95.4363327	-181.3119507	1.0
[LeftLeg]
20	0	0	-4.498080254	74.20625305	-77.84936523	-59.18456268	1.0
21	0	0	-4.498080254	81.75579834	-73.17041016	-55.75324631	1.0
22	0	0	-4.498080254	83.13470459	-66.98164368	-50.24771118	1.0
23	0	0	-4.498080254	83.80122375	-58.27745438	-43.71774292	1.0
[LeftFoot]
20	0	0	-3.729400158	-69.66520691	-10.56551075	115.5563126	1.0
21	0	0	-3.729400158	-72.4025116	-7.645411015	118.3917923	1.0
22	0	0	-3.729400158	-74.10214233	-3.792661667	122.8359146	1.0
23	0	0	-3.729400158	-74.3132019	1.595878124	129.636322	1.0
[LeftToeBase]
20	0	-1.364109993	-0.5911099911	9.999999975e-007	9.999999975e-007	1.745329176e-014	1.0
21	0	-1.364109993	-0.5911099911	9.999999975e-007	9.999999975e-007	1.745329176e-014	1.0
22	0	-1.364109993	-0.5911099911	9.999999975e-007	9.999999975e-007	1.745329176e-014	1.0
23	0	-1.364109993	-0.5911099911	9.999999975e-007	9.999999975e-007	1.745329176e-014	1.0
[RightUpLeg]
20	-0.9094099998	0	0	-78.47758484	-103.6512909	49.87959671	1.0
21	-0.9094099998	0	0	-88.70059204	-103.5594864	61.016922	1.0
22	-0.9094099998	0	0	-94.94216919	-103.8963318	68.26765442	1.0
23	-0.9094099998	0	0	-104.0701294	-103.6406403	80.74795532	1.0
[RightLeg]
20	0	0	-4.498080254	50.55939865	-74.31774902	-2.897883654	1.0
21	0	0	-4.498080254	47.64806366	-71.94752502	16.30965614	1.0
22	0	0	-4.498080254	37.07281494	-74.07977295	33.90582275	1.0
23	0	0	-4.498080254	29.23487091	-75.0824585	46.83167267	1.0
[RightFoot]
20	0	0	-3.729400158	-47.89105606	-27.78964615	100.1919174	1.0
21	0	0	-3.729400158	-43.60490799	-30.20185661	97.54865265	1.0
22	0	0	-3.729400158	-38.88747025	-32.03321075	92.95574951	1.0
23	0	0	-3.729400158	-32.65608215	-35.25172424	92.37315369	1.0
[RightToeBase]
20	0	-1.364109993	-0.5911099911	-9.999999975e-007	0	1.999999995e-006	1.0
21	0	-1.364109993	-0.5911099911	-9.999999975e-007	0	1.999999995e-006	1.0
22	0	-1.364109993	-0.5911099911	-9.999999975e-007	0	1.999999995e-006	1.0
23	0	-1.364109993	-0.5911099911	-9.999999975e-007	0	1.999999995e-006	1.0
[EndOfFile]
